<svg width="89" height="20" viewBox="0 0 89 20" fill="none" xmlns="http://www.w3.org/2000/svg">
<g clip-path="url(#clip0_4857_2816)">
<g clip-path="url(#clip1_4857_2816)">
<path d="M6.60529 6.38744L5.17251 5.17675C4.96248 4.99881 4.62135 5.07908 4.40997 5.35466L0.13441 10.9252C-0.0475287 11.1633 -0.0502043 11.5018 0.127721 11.6864L4.31633 16.0034C4.52236 16.2162 4.8635 16.1961 5.07753 15.9553L6.53574 14.3152L3.3518 11.2302C3.15245 11.0376 3.15648 10.679 3.35848 10.4276L6.60529 6.38878V6.38744Z" fill="#4100F3"/>
<path d="M6.60507 6.38705L10.1408 9.37565C10.387 9.58433 10.3843 9.98433 10.1328 10.2666L6.53418 14.3134L8.03248 15.7649C8.26394 15.9897 8.64654 15.9669 8.88734 15.7101L14.5903 9.63385C14.8739 9.3315 14.8779 8.90475 14.5984 8.68535L8.98902 4.28803C8.75221 4.10209 8.36961 4.19308 8.13284 4.48738L6.60507 6.38705Z" fill="#4100F3"/>
<path d="M26.2174 8.09276C26.0032 7.69995 25.7086 7.40088 25.3336 7.19553C24.9587 6.99019 24.5212 6.88753 24.0213 6.88753C23.4677 6.88753 22.9767 7.01252 22.5482 7.26249C22.1197 7.51246 21.7849 7.86956 21.5438 8.3338C21.3028 8.79804 21.1823 9.33368 21.1823 9.94076C21.1823 10.5657 21.3028 11.1103 21.5438 11.5745C21.7938 12.0387 22.1375 12.3958 22.575 12.6458C23.0124 12.8958 23.5213 13.0208 24.1016 13.0208C24.8158 13.0208 25.4006 12.8333 25.8558 12.4583C26.3112 12.0745 26.6102 11.5433 26.7531 10.8648H23.5392V9.43189H28.6011V11.0656C28.4761 11.7174 28.2083 12.32 27.7976 12.8735C27.387 13.427 26.8558 13.8734 26.204 14.2126C25.5612 14.5429 24.8381 14.7081 24.0346 14.7081C23.133 14.7081 22.3161 14.5072 21.584 14.1055C20.8609 13.6948 20.2895 13.1279 19.8699 12.4048C19.4592 11.6816 19.2539 10.8603 19.2539 9.94076C19.2539 9.0212 19.4592 8.19989 19.8699 7.47676C20.2895 6.7447 20.8609 6.17777 21.584 5.77604C22.3161 5.36538 23.1285 5.16004 24.0213 5.16004C25.0747 5.16004 25.9898 5.41894 26.7665 5.93673C27.5432 6.44562 28.0788 7.16428 28.3734 8.09276H26.2174ZM31.8628 8.36058C32.104 7.96777 32.4166 7.65977 32.8004 7.43658C33.1933 7.21338 33.6395 7.1018 34.1395 7.1018V9.07031H33.644C33.0548 9.07031 32.6085 9.2087 32.3049 9.48544C32.0103 9.76222 31.8628 10.2443 31.8628 10.9317V14.6277H29.9882V7.20891H31.8628V8.36058ZM34.9201 10.8915C34.9201 10.1416 35.0673 9.47652 35.3619 8.89622C35.6655 8.31595 36.0718 7.86956 36.5807 7.55708C37.0984 7.24464 37.6742 7.0884 38.3082 7.0884C38.8616 7.0884 39.3437 7.19998 39.7545 7.42317C40.1739 7.64637 40.5088 7.92759 40.7587 8.26685V7.20891H42.647V14.6277H40.7587V13.543C40.5178 13.8912 40.1828 14.1814 39.7545 14.4135C39.3348 14.6367 38.8482 14.7482 38.2948 14.7482C37.6697 14.7482 37.0984 14.5876 36.5807 14.2662C36.0718 13.9448 35.6655 13.4939 35.3619 12.9137C35.0673 12.3244 34.9201 11.6504 34.9201 10.8915ZM40.7587 10.9183C40.7587 10.463 40.6694 10.0747 40.4909 9.75326C40.3124 9.42297 40.0715 9.173 39.7679 9.00335C39.4643 8.82482 39.1384 8.73553 38.7903 8.73553C38.4419 8.73553 38.1207 8.82034 37.8261 8.98998C37.5315 9.15959 37.2903 9.40956 37.1028 9.73989C36.9243 10.0613 36.8351 10.4452 36.8351 10.8915C36.8351 11.3379 36.9243 11.7307 37.1028 12.07C37.2903 12.4003 37.5315 12.6547 37.8261 12.8333C38.1297 13.0118 38.4509 13.1011 38.7903 13.1011C39.1384 13.1011 39.4643 13.0163 39.7679 12.8467C40.0715 12.6681 40.3124 12.4182 40.4909 12.0968C40.6694 11.7665 40.7587 11.3736 40.7587 10.9183ZM43.996 10.8915C43.996 10.1416 44.1431 9.47652 44.4378 8.89622C44.7413 8.31595 45.1521 7.86956 45.6697 7.55708C46.1876 7.24464 46.7634 7.0884 47.3975 7.0884C47.8795 7.0884 48.3392 7.19553 48.7766 7.4098C49.2142 7.61512 49.5622 7.89189 49.821 8.24004V4.71813H51.7228V14.6277H49.821V13.5297C49.5891 13.8957 49.2631 14.1903 48.8437 14.4135C48.424 14.6367 47.9375 14.7482 47.384 14.7482C46.759 14.7482 46.1876 14.5876 45.6697 14.2662C45.1521 13.9448 44.7413 13.4939 44.4378 12.9137C44.1431 12.3244 43.996 11.6504 43.996 10.8915ZM49.8345 10.9183C49.8345 10.463 49.7452 10.0747 49.5667 9.75326C49.3882 9.42297 49.147 9.173 48.8437 9.00335C48.5401 8.82482 48.2142 8.73553 47.8661 8.73553C47.5178 8.73553 47.1966 8.82034 46.9019 8.98998C46.6073 9.15959 46.3661 9.40956 46.1787 9.73989C46.0001 10.0613 45.9109 10.4452 45.9109 10.8915C45.9109 11.3379 46.0001 11.7307 46.1787 12.07C46.3661 12.4003 46.6073 12.6547 46.9019 12.8333C47.2055 13.0118 47.5267 13.1011 47.8661 13.1011C48.2142 13.1011 48.5401 13.0163 48.8437 12.8467C49.147 12.6681 49.3882 12.4182 49.5667 12.0968C49.7452 11.7665 49.8345 11.3736 49.8345 10.9183ZM58.3748 14.6277L56.3124 10.9853H55.4285V14.6277H53.5539V5.28058H57.0622C57.7855 5.28058 58.4013 5.41001 58.9103 5.66891C59.4193 5.91888 59.7986 6.26261 60.0485 6.70004C60.3076 7.12858 60.4369 7.61067 60.4369 8.14631C60.4369 8.76231 60.2584 9.32028 59.9013 9.82025C59.5443 10.3113 59.013 10.6505 58.3076 10.838L60.544 14.6277H58.3748ZM55.4285 9.5792H56.9954C57.5043 9.5792 57.8837 9.45867 58.1336 9.21762C58.3837 8.96765 58.5085 8.62395 58.5085 8.18649C58.5085 7.75798 58.3837 7.42765 58.1336 7.19553C57.8837 6.95449 57.5043 6.83395 56.9954 6.83395H55.4285V9.5792ZM63.0834 6.32509C62.753 6.32509 62.4763 6.22243 62.2533 6.01709C62.039 5.80282 61.9318 5.53947 61.9318 5.227C61.9318 4.91455 62.039 4.65562 62.2533 4.45031C62.4763 4.23604 62.753 4.12891 63.0834 4.12891C63.4139 4.12891 63.6861 4.23604 63.9001 4.45031C64.1234 4.65562 64.2351 4.91455 64.2351 5.227C64.2351 5.53947 64.1234 5.80282 63.9001 6.01709C63.6861 6.22243 63.4139 6.32509 63.0834 6.32509ZM64.0073 7.20891V14.6277H62.1327V7.20891H64.0073ZM68.7655 7.0884C69.3192 7.0884 69.8058 7.19998 70.2252 7.42317C70.6449 7.63744 70.9751 7.91867 71.2163 8.26685V7.20891H73.1043V14.6813C73.1043 15.3687 72.9661 15.9802 72.6894 16.5159C72.4127 17.0605 71.9975 17.489 71.444 17.8015C70.8903 18.1229 70.2207 18.2836 69.4351 18.2836C68.3816 18.2836 67.5157 18.0381 66.8372 17.5471C66.1676 17.056 65.7882 16.3865 65.699 15.5383H67.5604C67.6587 15.8776 67.8685 16.1454 68.1897 16.3418C68.5201 16.5472 68.9175 16.6498 69.3816 16.6498C69.9261 16.6498 70.3682 16.4847 70.7073 16.1543C71.0467 15.833 71.2163 15.342 71.2163 14.6813V13.5297C70.9751 13.8778 70.6404 14.168 70.2118 14.4001C69.7924 14.6322 69.3103 14.7482 68.7655 14.7482C68.1407 14.7482 67.5694 14.5876 67.0515 14.2662C66.5339 13.9448 66.1231 13.4939 65.8195 12.9137C65.5249 12.3244 65.3778 11.6504 65.3778 10.8915C65.3778 10.1416 65.5249 9.47652 65.8195 8.89622C66.1231 8.31595 66.5294 7.86956 67.0381 7.55708C67.556 7.24464 68.1318 7.0884 68.7655 7.0884ZM71.2163 10.9183C71.2163 10.463 71.127 10.0747 70.9485 9.75326C70.77 9.42297 70.5288 9.173 70.2252 9.00335C69.9216 8.82482 69.596 8.73553 69.2476 8.73553C68.8995 8.73553 68.5781 8.82034 68.2834 8.98998C67.9888 9.15959 67.7479 9.40956 67.5604 9.73989C67.3819 10.0613 67.2927 10.4452 67.2927 10.8915C67.2927 11.3379 67.3819 11.7307 67.5604 12.07C67.7479 12.4003 67.9888 12.6547 68.2834 12.8333C68.587 13.0118 68.9085 13.1011 69.2476 13.1011C69.596 13.1011 69.9216 13.0163 70.2252 12.8467C70.5288 12.6681 70.77 12.4182 70.9485 12.0968C71.127 11.7665 71.2163 11.3736 71.2163 10.9183ZM79.1136 7.1018C79.676 7.1018 80.176 7.22679 80.6136 7.47676C81.0509 7.7178 81.39 8.07935 81.6312 8.56144C81.881 9.03461 82.0061 9.60598 82.0061 10.2755V14.6277H80.1315V10.53C80.1315 9.94076 79.984 9.48992 79.6894 9.17744C79.3948 8.85607 78.993 8.69535 78.4843 8.69535C77.9664 8.69535 77.5557 8.85607 77.2521 9.17744C76.9575 9.48992 76.8103 9.94076 76.8103 10.53V14.6277H74.9354V4.71813H76.8103V8.13294C77.0512 7.81153 77.3727 7.56156 77.7745 7.383C78.1763 7.19553 78.6225 7.1018 79.1136 7.1018ZM85.9718 8.74894V12.3378C85.9718 12.5878 86.0297 12.7708 86.1458 12.8868C86.2709 12.994 86.4763 13.0476 86.7619 13.0476H87.6324V14.6277H86.4539C84.8736 14.6277 84.0834 13.86 84.0834 12.3244V8.74894H83.1998V7.20891H84.0834V5.37431H85.9718V7.20891H87.6324V8.74894H85.9718Z" fill="#4100F3"/>
</g>
</g>
<defs>
<clipPath id="clip0_4857_2816">
<rect width="88.35" height="20" fill="white"/>
</clipPath>
<clipPath id="clip1_4857_2816">
<rect width="88.3582" height="20" fill="white" transform="translate(-0.00390625)"/>
</clipPath>
</defs>
</svg>
